<?xml version="1.0" standalone="no"?>
<!DOCTYPE svg PUBLIC "-//W3C//DTD SVG 20010904//EN"
 "http://www.w3.org/TR/2001/REC-SVG-20010904/DTD/svg10.dtd">
<svg version="1.0" xmlns="http://www.w3.org/2000/svg"
 width="4500.000000pt" height="518.000000pt" viewBox="0 0 4500.000000 518.000000"
 preserveAspectRatio="xMidYMid meet">
<metadata>
Created by potrace 1.15, written by Peter Selinger 2001-2017
</metadata>
<g transform="translate(0.000000,518.000000) scale(0.100000,-0.100000)"
fill="#000000" stroke="none">
<path d="M44365 5044 c-1322 -295 -3754 -821 -5360 -1159 -11559 -2432 -19690
-3712 -24610 -3874 -126 -4 6708 -9 15188 -9 l15417 -2 0 2590 c0 2460 -1
2590 -17 2589 -10 -1 -288 -62 -618 -135z"/>
<path d="M0 1165 l0 -1165 6203 2 c3411 1 6153 3 6092 5 -2922 65 -5476 348
-7780 863 -1614 361 -3069 828 -4432 1423 l-83 36 0 -1164z"/>
</g>
</svg>
